<?xml version="1.0" standalone="no"?>
<!DOCTYPE svg PUBLIC "-//W3C//DTD SVG 20010904//EN"
 "http://www.w3.org/TR/2001/REC-SVG-20010904/DTD/svg10.dtd">
<svg version="1.0" xmlns="http://www.w3.org/2000/svg"
 width="120.000000pt" height="183.000000pt" viewBox="0 0 120.000000 183.000000"
 preserveAspectRatio="xMidYMid meet">
<g transform="translate(0.000000,183.000000) scale(0.040000,-0.040000)"
fill="#000000" stroke="none">
<path d="M0 2288 l0 -2288 348 0 c239 0 351 9 357 29 6 15 43 29 84 31 60 2
75 14 81 70 6 52 23 69 75 75 l68 8 6 368 7 369 75 0 c74 0 74 0 74 150 l0
150 75 0 75 0 0 -600 0 -600 -150 0 c-83 0 -150 -11 -150 -25 0 -16 167 -25
450 -25 283 0 450 9 450 25 0 14 -67 25 -150 25 l-150 0 0 450 0 450 75 0 75
0 0 525 0 525 -75 0 c-67 0 -75 8 -75 75 l0 75 -225 0 -225 0 0 -150 0 -150
-75 0 c-66 0 -75 9 -75 73 0 62 -11 75 -69 82 -54 6 -70 22 -76 76 -7 58 -20
69 -82 69 -64 0 -73 9 -73 75 0 67 8 75 75 75 67 0 75 8 75 75 0 67 8 75 75
75 75 0 75 0 75 148 0 144 2 149 69 157 53 6 70 22 76 75 6 52 23 69 75 75 50
5 68 21 68 61 0 69 27 97 96 97 40 0 54 15 54 62 0 49 15 64 75 75 59 10 76
27 82 81 13 107 155 102 155 -4 0 -62 -11 -75 -69 -82 -53 -6 -70 -22 -76 -75
-6 -52 -23 -69 -75 -75 -53 -6 -67 -21 -67 -70 0 -49 -16 -64 -75 -75 -59 -10
-77 -27 -83 -80 -6 -52 -23 -69 -75 -75 -67 -7 -68 -9 -75 -226 l-7 -219 76 0
c68 0 76 8 76 75 0 67 8 75 75 75 67 0 75 -8 75 -75 0 -67 8 -75 75 -75 l75 0
0 225 0 225 75 0 75 0 0 -150 0 -150 75 0 c67 0 75 -8 75 -75 0 -67 8 -75 75
-75 67 0 75 -8 75 -75 0 -67 -8 -75 -76 -75 l-76 0 7 -144 c7 -135 11 -144 75
-151 52 -6 69 -23 75 -75 5 -48 22 -67 58 -67 71 0 112 -33 112 -89 0 -31 17
-49 45 -49 57 0 105 -47 105 -103 0 -29 23 -46 69 -52 60 -7 69 -18 69 -95 0
-83 -5 -87 -88 -87 -77 0 -88 8 -95 68 -6 47 -23 69 -54 69 -52 0 -92 42 -105
113 -5 28 -32 53 -63 57 -39 6 -57 28 -63 75 -6 53 -21 68 -70 68 l-62 0 -7
-744 -7 -744 74 0 c62 0 75 -11 82 -69 6 -52 21 -69 63 -69 31 -1 70 -15 86
-31 22 -22 143 -31 401 -31 l370 0 0 2288 0 2287 -762 0 -763 0 0 -87 0 -88
148 0 c144 0 149 -2 157 -69 6 -54 23 -71 83 -81 59 -10 75 -26 75 -75 0 -49
-16 -65 -75 -75 -73 -12 -76 -19 -83 -156 -7 -141 -9 -144 -80 -144 l-73 0 -7
219 -7 219 -219 7 -219 7 0 -226 0 -226 -75 0 -75 0 0 388 0 387 -512 0 -513
0 0 -2287z m2370 1657 c17 -17 30 -50 30 -75 0 -27 18 -45 45 -45 57 0 105
-47 105 -103 0 -29 23 -46 69 -52 65 -7 69 -15 76 -155 8 -156 -18 -201 -101
-175 -42 13 -55 -11 -46 -82 4 -37 -45 -68 -110 -70 -48 0 -50 -17 -50 -355 0
-368 -7 -395 -97 -395 -40 0 -54 -16 -54 -63 0 -52 -14 -64 -81 -70 -75 -8
-81 -3 -81 68 0 69 -8 77 -75 77 l-75 0 0 150 0 150 -75 0 -75 0 0 150 c0 149
0 150 74 150 72 0 74 -3 81 -144 7 -136 11 -144 76 -151 67 -8 69 -13 69 -158
0 -149 1 -150 69 -142 l69 8 0 287 0 288 -68 7 c-64 8 -68 17 -75 150 l-7 143
-144 7 c-141 7 -144 9 -144 82 l0 74 -369 -7 -368 -6 -8 -68 c-8 -64 -17 -68
-150 -75 l-142 -7 -3 -113 c-4 -169 -5 -171 -79 -180 l-68 -7 0 -288 0 -287
68 -8 c69 -8 69 -7 69 143 0 152 0 152 74 152 73 0 74 2 81 156 7 148 11 157
70 157 59 0 63 -9 70 -157 l7 -156 -76 0 -76 0 0 -150 0 -150 -75 0 c-67 0
-75 -8 -75 -75 0 -108 -142 -114 -155 -6 -6 51 -21 69 -62 69 -31 1 -64 9 -74
20 -33 32 -33 592 -1 596 16 2 52 5 80 6 44 2 49 17 41 131 -9 136 14 172 109
172 36 0 50 16 50 62 0 49 15 64 75 75 59 10 76 27 82 81 8 67 13 69 157 69
148 0 148 0 148 75 l0 75 225 0 225 0 0 -75 0 -75 150 0 c149 0 150 0 150 73
0 62 11 75 69 82 45 5 71 24 76 58 4 27 13 64 18 81 14 40 242 41 282 1z
m-1640 -1864 c6 -54 22 -70 76 -76 58 -7 69 -20 69 -82 0 -64 9 -73 75 -73
l75 0 0 -452 0 -451 -79 8 -80 8 6 447 7 447 -138 -14 c-170 -17 -190 3 -173
176 13 124 17 131 84 131 57 0 71 -12 78 -69z m895 -304 c0 -62 -11 -75 -69
-82 -68 -7 -69 -8 -76 -226 l-7 -219 76 0 76 0 0 -150 0 -150 -75 0 -75 0 0
150 c0 150 0 150 -74 150 l-74 0 -7 219 c-7 218 -8 219 -76 226 -58 7 -69 20
-69 82 l0 73 225 0 225 0 0 -73z"/>
<path d="M2092 3784 c-9 -10 -17 -44 -17 -76 0 -48 -13 -58 -75 -58 -67 0 -75
-8 -75 -75 0 -75 0 -75 149 -75 l149 0 7 -144 c7 -134 11 -143 70 -143 49 0
64 14 70 67 6 52 23 69 75 75 118 13 111 295 -6 295 -48 0 -62 15 -69 69 -7
64 -16 69 -134 75 -70 4 -135 -1 -144 -10z"/>
</g>
</svg>
