<?xml version="1.0" standalone="no"?>
<!DOCTYPE svg PUBLIC "-//W3C//DTD SVG 20010904//EN"
 "http://www.w3.org/TR/2001/REC-SVG-20010904/DTD/svg10.dtd">
<svg version="1.0" xmlns="http://www.w3.org/2000/svg"
 width="210.000000pt" height="346.000000pt" viewBox="0 0 210.000000 346.000000"
 preserveAspectRatio="xMidYMid meet">
<g transform="translate(0.000000,346.000000) scale(0.050000,-0.050000)"
fill="#000000" stroke="none">
<path d="M0 3460 l0 -3460 2100 0 2100 0 0 3460 0 3460 -2100 0 -2100 0 0
-3460z m1080 2920 l0 -100 100 0 100 0 0 -100 0 -100 100 0 100 0 0 200 0 200
600 0 600 0 0 -200 0 -200 100 0 100 0 0 100 0 100 100 0 100 0 0 100 0 100
300 0 300 0 0 -800 0 -800 -100 0 -100 0 0 -200 0 -200 -100 0 -100 0 0 -200
0 -200 -100 0 -100 0 0 -100 0 -100 -100 0 -100 0 0 -200 0 -200 400 0 400 0
0 -200 0 -200 -100 0 -100 0 0 -100 0 -100 -100 0 -100 0 0 100 0 100 -300 0
-300 0 0 -1200 0 -1200 500 0 500 0 0 -100 0 -100 100 0 100 0 0 -100 0 -100
-200 0 -200 0 0 -100 0 -100 -1300 0 -1300 0 0 100 0 100 -300 0 -300 0 0 100
0 100 100 0 100 0 0 100 0 100 500 0 500 0 0 1200 0 1200 -300 0 -300 0 0
-100 0 -100 -100 0 -100 0 0 100 0 100 -100 0 -100 0 0 200 0 200 400 0 400 0
0 200 0 200 -100 0 -100 0 0 100 0 100 -100 0 -100 0 0 200 0 200 -100 0 -100
0 0 200 0 200 -100 0 -100 0 0 800 0 800 300 0 300 0 0 -100z"/>
<path d="M880 5380 l0 -700 100 0 100 0 0 -200 0 -200 100 0 100 0 0 -200 0
-200 300 0 300 0 0 200 0 200 -100 0 -100 0 0 100 0 100 -100 0 -100 0 0 700
0 700 -200 0 -200 0 0 100 0 100 -100 0 -100 0 0 -700z"/>
<path d="M3080 5980 l0 -100 -200 0 -200 0 0 -700 0 -700 -100 0 -100 0 0
-100 0 -100 -100 0 -100 0 0 -200 0 -200 300 0 300 0 0 200 0 200 100 0 100 0
0 200 0 200 100 0 100 0 0 700 0 700 -100 0 -100 0 0 -100z"/>
<path d="M1880 2080 l0 -1000 200 0 200 0 0 1000 0 1000 -200 0 -200 0 0
-1000z"/>
</g>
</svg>
