<?xml version="1.0" standalone="no"?>
<!DOCTYPE svg PUBLIC "-//W3C//DTD SVG 20010904//EN"
 "http://www.w3.org/TR/2001/REC-SVG-20010904/DTD/svg10.dtd">
<svg version="1.0" xmlns="http://www.w3.org/2000/svg"
 width="96.000000pt" height="90.000000pt" viewBox="0 0 96.000000 90.000000"
 preserveAspectRatio="xMidYMid meet">
<g transform="translate(0.000000,90.000000) scale(0.040000,-0.040000)"
fill="#000000" stroke="none">
<path d="M0 1125 l0 -1125 58 0 c53 0 59 12 61 125 3 110 13 133 97 206 51 45
144 132 207 194 l115 113 191 -2 192 -1 140 -142 c77 -79 145 -143 152 -143 6
0 76 65 156 144 l144 144 194 -3 194 -4 216 -216 c120 -118 232 -215 250 -215
25 0 33 62 33 263 l0 262 -256 3 c-141 1 -656 4 -1144 6 l-887 4 0 125 c1 118
8 131 135 250 74 68 167 157 207 197 67 66 87 72 269 73 l196 2 141 -142 c77
-79 145 -143 152 -143 6 0 76 65 156 145 l144 145 192 -4 c180 -5 198 -10 275
-84 240 -232 320 -315 320 -332 0 -11 23 -20 50 -20 47 0 50 17 50 263 l0 262
-256 3 c-141 1 -659 2 -1150 1 l-894 -2 0 123 c0 122 2 125 219 336 l219 214
185 0 185 0 146 -150 c80 -82 152 -150 160 -150 7 0 77 68 155 150 l141 150
191 0 191 0 223 -224 c122 -124 237 -225 254 -225 23 -1 31 70 31 274 l0 275
-1200 0 -1200 0 0 -1125z"/>
<path d="M1206 1706 l-406 -7 0 -70 0 -70 448 -3 c409 -2 448 1 459 42 14 56
-24 129 -64 121 -17 -3 -213 -9 -437 -13z"/>
<path d="M284 1662 c-26 -68 40 -112 169 -112 119 0 122 2 122 75 0 74 -1 75
-138 75 -101 0 -143 -10 -153 -38z"/>
<path d="M1929 1633 c8 -68 14 -70 146 -70 130 0 138 3 138 62 0 59 -9 63
-146 70 l-146 8 8 -70z"/>
<path d="M1219 956 l-419 -7 0 -73 0 -72 451 -1 452 0 -8 78 c-4 43 -19 79
-32 80 -14 1 -214 -1 -444 -5z"/>
<path d="M284 912 c-27 -70 41 -115 164 -107 104 7 115 14 122 76 8 68 6 69
-132 69 -101 0 -144 -10 -154 -38z"/>
<path d="M1925 877 l0 -75 144 6 c134 6 144 10 144 68 0 57 -10 62 -144 69
l-144 7 0 -75z"/>
<path d="M400 202 c-100 -13 -113 -22 -120 -83 -8 -69 -7 -69 144 -69 162 0
212 38 159 121 -30 48 -43 50 -183 31z"/>
<path d="M799 189 c-32 -32 -30 -107 3 -128 43 -26 875 -19 903 9 13 13 20 50
16 81 -8 57 -10 57 -453 59 -252 2 -456 -8 -469 -21z"/>
<path d="M1920 181 c-54 -65 19 -164 109 -146 42 8 105 15 138 15 52 0 60 10
53 69 -7 63 -18 70 -140 82 -93 9 -141 3 -160 -20z"/>
</g>
</svg>
