<?xml version="1.0" standalone="no"?>
<!DOCTYPE svg PUBLIC "-//W3C//DTD SVG 20010904//EN"
 "http://www.w3.org/TR/2001/REC-SVG-20010904/DTD/svg10.dtd">
<svg version="1.0" xmlns="http://www.w3.org/2000/svg"
 width="51.000000pt" height="90.000000pt" viewBox="0 0 51.000000 90.000000"
 preserveAspectRatio="xMidYMid meet">
<g transform="translate(0.000000,90.000000) scale(0.040000,-0.040000)"
fill="#000000" stroke="none">
<path d="M0 1125 l0 -1125 66 0 c38 0 90 26 124 63 47 50 81 62 184 62 l127 0
-7 406 -6 407 -110 -9 c-91 -7 -120 3 -180 61 -100 95 -27 191 75 100 63 -56
211 -62 222 -9 6 29 -15 53 -62 71 -91 34 -183 121 -183 172 0 22 -22 59 -50
82 -127 109 63 667 228 669 23 0 55 17 72 38 22 26 79 37 188 37 108 0 165
-11 187 -37 17 -21 53 -38 79 -38 54 0 202 -156 222 -235 8 -29 33 -56 56 -60
38 -8 43 19 43 231 l0 239 -637 0 -638 0 0 -1125z"/>
<path d="M955 1795 c-16 -16 -30 -87 -30 -156 -1 -152 -94 -279 -214 -293 -94
-11 -106 -104 -15 -117 85 -12 179 17 179 54 0 17 45 76 100 130 89 86 100
110 100 215 0 146 -59 228 -120 167z"/>
<path d="M1176 1389 c-17 -20 -23 -48 -15 -61 22 -36 -111 -153 -192 -170 -46
-9 -69 -30 -69 -61 0 -61 226 -69 275 -9 17 20 47 37 66 37 25 0 34 39 34 150
0 155 -33 193 -99 114z"/>
<path d="M1185 973 c-37 -41 -66 -49 -135 -39 -140 23 -144 13 -153 -409 l-9
-387 137 -8 c87 -5 145 -21 157 -44 11 -20 37 -36 57 -36 30 0 36 78 36 488 0
268 -10 487 -21 487 -12 0 -43 -24 -69 -52z"/>
<path d="M650 616 c0 -338 10 -380 86 -351 35 14 39 61 33 344 -6 319 -8 329
-63 336 -56 8 -56 7 -56 -329z"/>
</g>
</svg>
